<?xml version="1.0" standalone="no"?>
<!DOCTYPE svg PUBLIC "-//W3C//DTD SVG 20010904//EN"
 "http://www.w3.org/TR/2001/REC-SVG-20010904/DTD/svg10.dtd">
<svg version="1.0" xmlns="http://www.w3.org/2000/svg"
 width="300.000000pt" height="300.000000pt" viewBox="0 0 300.000000 300.000000"
 preserveAspectRatio="xMidYMid meet">
<metadata>
Created by potrace 1.11, written by Peter Selinger 2001-2013
</metadata>
<g transform="translate(0.000000,300.000000) scale(0.100000,-0.100000)"
fill="#000000" stroke="none">
<path d="M0 2440 l0 -560 185 0 185 0 0 375 0 375 375 0 375 0 0 185 0 185
-560 0 -560 0 0 -560z"/>
<path d="M1870 2815 l0 -185 375 0 375 0 0 -375 0 -375 190 0 190 0 0 560 0
560 -565 0 -565 0 0 -185z"/>
<path d="M750 1690 l0 -190 185 0 185 0 0 190 0 190 -185 0 -185 0 0 -190z"/>
<path d="M1870 1690 l0 -190 190 0 190 0 0 190 0 190 -190 0 -190 0 0 -190z"/>
<path d="M0 940 l0 -190 375 0 375 0 0 -185 0 -185 -190 0 -190 0 0 -190 0
-190 190 0 190 0 0 190 0 190 185 0 185 0 0 185 0 185 375 0 375 0 0 -185 0
-185 190 0 190 0 0 -190 0 -190 185 0 185 0 0 190 0 190 -185 0 -185 0 0 185
0 185 375 0 375 0 0 190 0 190 -375 0 -375 0 0 -190 0 -190 -190 0 -190 0 0
190 0 190 -375 0 -375 0 0 -190 0 -190 -185 0 -185 0 0 190 0 190 -375 0 -375
0 0 -190z"/>
</g>
</svg>
